<svg width="40" height="40" viewBox="0 0 40 40" fill="none" xmlns="http://www.w3.org/2000/svg">
<path d="M29.0666 15.5503H27.2333V10.6669C27.2333 8.74853 26.4712 6.9087 25.1147 5.55219C23.7582 4.19567 21.9183 3.43359 19.9999 3.43359C18.0815 3.43359 16.2417 4.19567 14.8852 5.55219C13.5287 6.9087 12.7666 8.74853 12.7666 10.6669V15.5503H10.9333C9.8282 15.5503 8.76839 15.9892 7.98699 16.7706C7.20559 17.5521 6.7666 18.6119 6.7666 19.7169V32.4003C6.76968 33.5044 7.20966 34.5624 7.99039 35.3431C8.77113 36.1239 9.82915 36.5639 10.9333 36.5669H29.0666C30.1707 36.5639 31.2287 36.1239 32.0095 35.3431C32.7902 34.5624 33.2302 33.5044 33.2333 32.4003V19.7169C33.2333 18.6119 32.7943 17.5521 32.0129 16.7706C31.2315 15.9892 30.1717 15.5503 29.0666 15.5503ZM14.4333 10.6669C14.4333 9.19056 15.0198 7.77465 16.0637 6.7307C17.1077 5.68675 18.5236 5.10026 19.9999 5.10026C21.4763 5.10026 22.8922 5.68675 23.9362 6.7307C24.9801 7.77465 25.5666 9.19056 25.5666 10.6669V15.5503H14.4333V10.6669ZM31.5666 32.4003C31.5618 33.0618 31.2969 33.6949 30.8291 34.1627C30.3613 34.6305 29.7282 34.8955 29.0666 34.9003H10.9333C10.2717 34.8955 9.63861 34.6305 9.1708 34.1627C8.703 33.6949 8.43807 33.0618 8.43327 32.4003V19.7169C8.43327 19.0539 8.69666 18.418 9.1655 17.9492C9.63434 17.4803 10.2702 17.2169 10.9333 17.2169H29.0666C29.7296 17.2169 30.3655 17.4803 30.8344 17.9492C31.3032 18.418 31.5666 19.0539 31.5666 19.7169V32.4003Z" fill="black"/>
<path d="M21.6668 24.9167C21.6678 25.2081 21.5911 25.4945 21.4446 25.7464C21.2982 25.9983 21.0872 26.2067 20.8335 26.35V28.85C20.8335 29.071 20.7457 29.283 20.5894 29.4393C20.4331 29.5955 20.2212 29.6833 20.0002 29.6833C19.7792 29.6833 19.5672 29.5955 19.4109 29.4393C19.2546 29.283 19.1668 29.071 19.1668 28.85V26.35C18.9131 26.2067 18.7022 25.9983 18.5557 25.7464C18.4092 25.4945 18.3325 25.2081 18.3335 24.9167C18.3335 24.4746 18.5091 24.0507 18.8217 23.7382C19.1342 23.4256 19.5581 23.25 20.0002 23.25C20.4422 23.25 20.8661 23.4256 21.1787 23.7382C21.4912 24.0507 21.6668 24.4746 21.6668 24.9167Z" fill="black"/>
</svg>